<svg width="62" height="62"><path d="M57.995 24.705c.442 1.96.696 3.99.696 6.08 0 15.232-12.39 27.625-27.623 27.625S3.442 46.017 3.442 30.786c0-2.092.254-4.122.696-6.08l.387-1.5C7.83 11.65 18.465 3.16 31.067 3.16c12.6 0 23.236 8.49 26.542 20.045l.385 1.5zM31.067.16C14.18.16.442 13.9.442 30.786c0 16.886 13.74 30.624 30.625 30.624 16.887 0 30.624-13.738 30.624-30.624C61.69 13.9 47.955.16 31.068.16z"/><path d="M19.27 20.681a3.275 3.275 0 0 0 0 6.547 3.273 3.273 0 1 0 0-6.546m23.595-.001a3.275 3.275 0 0 0 0 6.547 3.273 3.273 0 1 0 0-6.546m3.272 23.752h-30.14a1.5 1.5 0 1 1 0-3h30.14a1.5 1.5 0 1 1 0 3"/></svg>