<svg viewBox="0 0 7 11"><path d="M2.215 8.17c.004-.638.1-1.105.284-1.4.183-.298.55-.658 1.103-1.082.323-.264.582-.55.775-.854a1.87 1.87 0 0 0 .29-1.025c0-.42-.11-.75-.33-.986-.222-.237-.537-.355-.947-.355-.337 0-.623.1-.857.3-.235.2-.355.494-.36.88H.234l-.014-.04c-.015-.875.273-1.545.863-2.01.59-.464 1.36-.697 2.308-.697 1.02 0 1.822.26 2.403.776.582.516.872 1.22.872 2.108 0 .58-.17 1.114-.51 1.607-.34.492-.764.904-1.274 1.237-.277.214-.46.43-.546.646-.087.216-.13.514-.13.892h-1.99zM4.218 11h-2.01V9.29h2.01V11z"/></svg>