<svg width="63" height="62"><path d="M31.452 58.41c-15.232 0-27.625-12.393-27.625-27.625S16.22 3.16 31.452 3.16s27.625 12.393 27.625 27.625S46.684 58.41 31.452 58.41m0-58.25C14.565.16.827 13.9.827 30.786S14.565 61.41 31.452 61.41s30.625-13.738 30.625-30.625S48.34.16 31.452.16"/><path d="M19.784 24.228a3.272 3.272 0 0 0 3.272-3.273 3.273 3.273 0 1 0-6.545.001 3.273 3.273 0 0 0 3.274 3.273m23.593-.001a3.272 3.272 0 0 0 3.273-3.273 3.272 3.272 0 1 0-6.544.001 3.272 3.272 0 0 0 3.272 3.273M31.452 36.09a21.07 21.07 0 0 0-17.395 9.187 1.5 1.5 0 1 0 2.476 1.694 18.073 18.073 0 0 1 14.92-7.88 18.08 18.08 0 0 1 14.92 7.88 1.495 1.495 0 0 0 2.085.391c.683-.466.858-1.4.39-2.083a21.074 21.074 0 0 0-17.395-9.188"/></svg>