<svg width="41" height="46"><path d="M20.76 41.918l-4.44 1.45V27.06l19.053-6.263v4.6c.633.273 1.24.6 1.81.978a.977.977 0 0 0 .028-.217v-6.63c0-.032-.005-.06-.01-.09 0-.024 0-.047-.004-.07a.874.874 0 0 0-.045-.16c-.003-.01-.003-.022-.01-.032a.963.963 0 0 0-.095-.176l-.006-.01-4.637-6.46a.912.912 0 0 0-1.022-.34l-2.798.882-5.01-2.68 4.502-8.648a.927.927 0 0 0-.105-1.01.924.924 0 0 0-.974-.294L7.473 6.254a.917.917 0 0 0-.524.406l-5.985 9.9c-.01.014-.012.03-.02.046a.861.861 0 0 0-.046.107.787.787 0 0 0-.042.13c-.002.016-.01.032-.014.048-.004.024 0 .048-.002.07-.002.026-.01.05-.01.075v18.852c0 .31.155.597.412.767l13.37 8.838a.911.911 0 0 0 .793.108l6.47-2.112c-.41-.49-.788-1.013-1.116-1.57zm5.373-28.074l-2.613.826v-2.223l2.613 1.397zM8.338 7.914l17.104-5.096-3.875 7.442L3.76 15.488l4.578-7.574zm2.082 12.092l1.955 3.2-8.508-5.833 17.815-5.232v3.11l-10.756 3.398a.924.924 0 0 0-.506 1.358zM14.48 43.2L2.67 35.394V18.78l11.81 8.1V43.2zM12.6 20.048l16.156-5.104 2.543-.802 3.517 4.903-19.012 6.25-3.205-5.246z"/><path d="M30.77 26.25c-5.407 0-9.79 4.383-9.79 9.79 0 5.407 4.383 9.79 9.79 9.79 5.405 0 9.79-4.383 9.79-9.79 0-5.407-4.385-9.79-9.79-9.79m.006 16.77c-14.264-9.018-2.913-16.034 0-9.018 2.912-7.016 14.265 0 0 9.02"/></svg>