<svg width="62" height="62"><path d="M30.682 58.41c-15.233 0-27.625-12.393-27.625-27.625S15.45 3.16 30.682 3.16s27.625 12.393 27.625 27.625S45.914 58.41 30.682 58.41m0-58.25C13.795.16.057 13.9.057 30.786S13.795 61.41 30.682 61.41s30.625-13.738 30.625-30.625S47.57.16 30.682.16"/><path d="M19.01 24.248a3.272 3.272 0 1 0 .001-6.546 3.272 3.272 0 1 0 .001 6.546m23.593 0a3.273 3.273 0 1 0 .001-6.545 3.273 3.273 0 0 0-.001 6.545M30.68 50.575c-8.316 0-15.796-5.27-18.61-13.113a1.5 1.5 0 1 1 2.823-1.014c2.388 6.655 8.733 11.127 15.788 11.127 7.056 0 13.4-4.472 15.79-11.127a1.5 1.5 0 0 1 2.823 1.015C46.478 45.304 39 50.574 30.68 50.574"/></svg>