<svg width="50" height="37"><path d="M8.85 12.4c-4.28 0-6.094-2.318-6.326-2.645C.684 7.572.612 4.517.61 4.388.432 2.438 2.323.943 2.403.88 3.413.002 4.64.353 5.145.666c.95.716 1.142 1.607 1.11 2.093l.175 1.343c.04 1.402.733 2.131.738 2.14l-.865.864c-.043-.04-1.03-1.05-1.098-2.936L5.02 2.766l.012-.086c0-.01.043-.516-.55-.983-.14-.076-.747-.354-1.3.13-.04.032-1.47 1.171-1.35 2.495.004.072.077 2.818 1.643 4.663l.043.055c.082.12 2.137 2.984 7.773 1.883l.236 1.204c-.983.19-1.873.273-2.676.273"/><path d="M38.422 36.358c-.7 0-1.37-.15-1.994-.45L8.77 22.62c-1.05-.506-1.88-1.41-2.336-2.55l-.057-.187-2.207-9.774a5.161 5.161 0 0 1 .48-2.957 5.155 5.155 0 0 1 2.012-2.226l.086-.046L15.852.47c1.177-.356 2.4-.276 3.45.23l27.66 13.29c1.28.616 2.19 1.772 2.564 3.257.353 1.4.18 2.94-.49 4.334L43.65 32.787c-1.042 2.17-3.095 3.57-5.228 3.57zM8.744 19.238c.172.39.496.886 1.088 1.17l27.658 13.29c.287.14.602.21.932.21 1.178 0 2.39-.878 3.02-2.183l5.384-11.21c.422-.876.537-1.825.323-2.673-.193-.765-.636-1.347-1.25-1.644L18.24 2.908c-.478-.23-1.033-.27-1.595-.118L7.87 7.057c-.42.26-.776.668-1.01 1.155a2.729 2.729 0 0 0-.268 1.505l2.152 9.52z"/><path d="M13.713 9.527a2.047 2.047 0 1 0-1.772 3.693 2.047 2.047 0 0 0 1.772-3.694m6.397-.816l4.708 2.26-1.02 2.126-2.794-1.342-.83 1.725 2.386 1.145-.96 1.998-2.385-1.148-1.942 4.04-1.912-.92m5.759 2.766l4.75-9.884 3.173 1.526c.588.28.998.58 1.232.89.233.31.338.733.32 1.264-.02.527-.183 1.107-.484 1.738-.262.547-.56.987-.9 1.313-.337.33-.693.556-1.068.68a2.081 2.081 0 0 1-.855.07c.168.228.275.43.32.603.032.114.05.334.055.664.006.33-.002.578-.027.742l-.455 3.307-2.153-1.033.436-3.51c.058-.453.066-.76.02-.926-.063-.218-.182-.37-.356-.453l-.168-.08-1.93 4.01-1.91-.92zm4.735-4.958l.803.385c.088.043.28.078.572.107.145.022.297-.035.455-.162.163-.127.293-.3.397-.514.152-.32.207-.595.164-.828-.045-.232-.238-.43-.586-.597l-.838-.4-.967 2.01zm6.68-1.722l5.104 2.45-1.017 2.112-3.195-1.535-.754 1.573 2.965 1.423-.972 2.018-2.963-1.425-.936 1.95 3.285 1.58-1.075 2.238-5.195-2.496m10.97-6.9l5.102 2.45-1.014 2.11-3.195-1.535-.754 1.575 2.964 1.42-.97 2.017-2.964-1.424-.936 1.952 3.288 1.577-1.077 2.24L34 27.552"/></svg>