<svg width="42" height="42"><path d="M9.178 8.672c.75 0 1.357-.61 1.357-1.36V1.487a1.359 1.359 0 1 0-2.717 0v5.827c0 .75.61 1.36 1.36 1.36m21.865-.002c.75 0 1.36-.61 1.36-1.36V1.487c0-.75-.61-1.36-1.36-1.36-.75 0-1.36.61-1.36 1.36v5.827c0 .75.61 1.36 1.36 1.36m-4.979 12.781c-.038-.045-.067-.094-.11-.137a2.693 2.693 0 0 0-3.806 0 2.69 2.69 0 0 0-.03 3.766 11.67 11.67 0 0 1 3.947-3.63m-.112-3.671a2.69 2.69 0 1 0-3.804-3.803 2.69 2.69 0 0 0 3.804 3.803m4.08-3.803a2.69 2.69 0 1 0 3.803 3.802 2.69 2.69 0 0 0-3.803-3.801"/><path d="M20.977 35.963H3.527a.932.932 0 0 1-.93-.93V7.43c0-.514.418-.932.93-.932h.785a4.939 4.939 0 0 0 4.867 5.748 4.938 4.938 0 0 0 4.865-5.748h12.133a4.939 4.939 0 0 0 4.865 5.748 4.94 4.94 0 0 0 4.868-5.748h.784c.513 0 .93.418.93.932v14.178c.656.388 1.27.837 1.84 1.345V7.43a2.77 2.77 0 0 0-2.77-2.77h-3.076v.936a3.095 3.095 0 1 1-5.15 0V4.66H11.754v.936a3.094 3.094 0 0 1-2.574 4.812 3.095 3.095 0 0 1-2.577-4.812V4.66H3.528a2.77 2.77 0 0 0-2.77 2.77v27.603A2.77 2.77 0 0 0 3.53 37.8h18.398a11.39 11.39 0 0 1-.95-1.837"/><path d="M6.384 28.656a2.69 2.69 0 1 0 3.804 3.802 2.69 2.69 0 0 0-3.804-3.801m11.686-7.339a2.69 2.69 0 1 0-3.804 3.806 2.69 2.69 0 0 0 3.804-3.806m-7.882-7.338a2.69 2.69 0 1 0-3.804 3.804 2.69 2.69 0 0 0 3.804-3.803m0 7.337a2.69 2.69 0 1 0-3.804 3.806 2.69 2.69 0 0 0 3.804-3.806m4.078 7.338a2.69 2.69 0 1 0 3.804 3.802 2.69 2.69 0 0 0-3.804-3.801M18.07 13.98a2.69 2.69 0 1 0-3.804 3.804 2.69 2.69 0 0 0 3.804-3.803M31.72 21.8a9.79 9.79 0 0 0-9.79 9.79c0 5.406 4.383 9.79 9.79 9.79 5.405 0 9.79-4.384 9.79-9.79 0-5.408-4.385-9.79-9.79-9.79m6.825 7.64l-7.762 7.76a1.531 1.531 0 0 1-2.169 0l-3.982-3.983a1.533 1.533 0 1 1 2.168-2.17l2.9 2.9 6.675-6.677a1.537 1.537 0 0 1 2.17 0c.6.6.6 1.57 0 2.17"/></svg>