<svg width="47" height="29"><path d="M26.323 19.03a5.358 5.358 0 0 0-6.656.73 5.36 5.36 0 0 0 0 7.578 5.355 5.355 0 0 0 8.879-5.444l4.103-5.443-6.327 2.58z"/><path d="M23.456.62C10.812.62.526 10.907.526 23.55v1.03h9.5v-1.03c0-7.404 6.024-13.43 13.43-13.43 7.404 0 13.428 6.026 13.428 13.43v1.03h9.502v-1.03C46.386 10.907 36.1.62 23.456.62zM8.003 22.52H2.608a20.749 20.749 0 0 1 2.47-8.848L7.44 15.16l1.077-1.703-2.395-1.512a21.018 21.018 0 0 1 6.022-5.928l2.7 4.672c-3.876 2.603-6.517 6.906-6.84 11.83zm8.62-12.862l-2.696-4.672a20.703 20.703 0 0 1 8.5-2.28v2.64h2.057v-2.64c3.05.147 5.93.956 8.5 2.28l-2.696 4.672a15.415 15.415 0 0 0-13.664 0zM38.91 22.52c-.323-4.924-2.966-9.227-6.84-11.83l2.7-4.673a21.067 21.067 0 0 1 6.01 5.91l-2.314 1.462 1.097 1.74 2.283-1.44a20.72 20.72 0 0 1 2.46 8.83h-5.395z"/></svg>