<svg viewBox="0 0 22 19"><path d="M15.827 5.444a.792.792 0 0 0-.785-.694h-2.375v-.792A3.964 3.964 0 0 0 8.707 0 3.963 3.963 0 0 0 4.75 3.958v.792H2.375a.79.79 0 0 0-.785.694L.006 18.11a.793.793 0 0 0 .786.89H17.79c0-.934-.655-5.453-1.963-13.556zm-4.744-.694h-4.75v-.792a2.378 2.378 0 0 1 2.375-2.375 2.378 2.378 0 0 1 2.375 2.375v.792z"/><path fill="#FFF" d="M18.92 9.5c.954 0-1.746-.5-2.837-.5a4.06 4.06 0 0 0-2.887 1.196A4.053 4.053 0 0 0 12 13.083c0 1.09.425 2.116 1.196 2.887 1.342 1.35 2.35 2.36 3.02 3.03h1.6c.38-6.334.75-9.5 1.105-9.5z"/><path d="M20.56 11.613A2.08 2.08 0 0 0 19.08 11a2.08 2.08 0 0 0-1.48.613l-.014.015-.015-.015A2.071 2.071 0 0 0 16.095 11a2.08 2.08 0 0 0-1.48.613c-.395.395-.612.92-.612 1.48 0 .558.22 1.083.614 1.478l2.973 2.976 2.972-2.973c.394-.394.612-.92.612-1.478a2.08 2.08 0 0 0-.613-1.48z"/></svg>