<svg width="62" height="62"><g transform="translate(1 1)" fill="none" fill-rule="evenodd"><circle stroke="#00973B" stroke-width="2" fill="#FFF" cx="30" cy="30" r="30"/><path d="M49.108 13.002c-.127-.272-3.194-6.66-12.217-6.66-.094 0-9 .178-11.024 8.2-1.336-1.084-3.89-2.75-6.976-2.75-.238-.008-5.822-.152-8.44 5.357-.1.205-2.394 5.073-.313 10.053.058.168 1.482 4.144 6.138 6.568a.731.731 0 0 0 .781-1.23c-.048-.038-4.878-3.792-4.879-9.873 0-.02.096-2.013 1.011-3.994 1.18-2.551 3.126-3.845 5.802-3.845.038-.007 3.69-.048 6.47 2.521.146.172.525.54 1.1.54a.7.7 0 0 0 .09-.005c.486-.06 1.05-.432 1.136-1.08.05-.293 1.33-7.202 8.792-7.202.068-.002 6.193-.104 9.122 4.536.028.042 2.772 4.243 1.388 9.463-.012.052-1.262 5.204-9.227 11.981a.731.731 0 0 0 .88 1.167c.361-.241 8.867-5.962 11.195-12.49.227-.503 2.211-5.27-.83-11.257" fill="#00953A"/><path d="M29.372 43.321zM17.648 27.47c2.342 4.046 7.674 7.036 7.728 7.066.756.463.856 1.336.641 1.957-2.636 8.233-6.824 14.728-6.866 14.793-.313.432-.312.694-.311.705l.005.045-.003.01c0 .11.029.138.044.153.11.107.413.15.58.153 1.133 0 1.405-.491 1.416-.512l.03-.06a62.582 62.582 0 0 1 3.131-4.819c3.156-4.538 4.697-5.098 5.262-5.098h.009c.565 0 2.106.56 5.271 5.11.059.08 1.656 2.283 3.121 4.807l.044.088c.003 0 .28.483 1.376.483.199.008.497-.045.607-.152.015-.015.044-.043.044-.153l.006-.091v.002c-.003 0-.015-.257-.293-.64-.064-.096-4.252-6.59-6.894-14.84-.21-.605-.11-1.478.62-1.925.08-.046 5.42-3.045 7.756-7.085.04-.098.22-.61-.107-.973l-.067-.086a.323.323 0 0 0-.081-.067c0 .007-.092.046-.242.225-.191.242-5.069 6.313-11.166 6.313-6.096 0-10.973-6.07-11.178-6.329-.154-.184-.248-.21-.25-.21.003.007-.044.049-.069.081l-.057.073c-.325.36-.152.863-.107.976zm1.786 26.345c-.227 0-1.019-.041-1.558-.558a1.628 1.628 0 0 1-.497-1.18c-.014-.218.007-.85.566-1.62.02-.031 4.104-6.372 6.684-14.426.025-.08.03-.197.013-.232-.21-.113-5.753-3.222-8.284-7.637l-.026-.05c-.255-.535-.47-1.671.308-2.567.127-.17.53-.628 1.171-.665.364-.02.908.093 1.454.746.059.073 4.661 5.79 10.044 5.79 5.384 0 9.986-5.717 10.032-5.775.56-.668 1.101-.782 1.467-.76.64.036 1.044.495 1.171.664.78.896.563 2.032.308 2.567l-.025.05c-2.532 4.415-8.074 7.524-8.309 7.653.002.028.02.165.032.199 2.585 8.071 6.67 14.412 6.71 14.475.541.742.56 1.372.545 1.589a1.626 1.626 0 0 1-.496 1.18c-.61.583-1.544.56-1.65.556h-.001c-1.88 0-2.523-1.034-2.667-1.325-1.422-2.446-3.018-4.645-3.033-4.667-2.548-3.663-3.802-4.36-4.084-4.478-.281.118-1.534.813-4.073 4.465-.025.035-1.62 2.234-3.043 4.68-.144.292-.791 1.325-2.7 1.325l-.059.001z" fill="#00953A"/><path d="M29.261 21.951a3.411 3.411 0 0 0-3.407 3.408 3.411 3.411 0 0 0 3.407 3.407 3.411 3.411 0 0 0 3.407-3.407 3.411 3.411 0 0 0-3.407-3.408m0 8.279a4.877 4.877 0 0 1-4.87-4.871 4.876 4.876 0 0 1 4.87-4.871 4.876 4.876 0 0 1 4.87 4.87 4.877 4.877 0 0 1-4.87 4.872" fill="#00953A"/></g></svg>