<svg width="62" height="62"><g transform="translate(1 1)" fill="none" fill-rule="evenodd"><circle stroke="#00973B" stroke-width="2" fill="#FFF" cx="30" cy="30" r="30"/><path d="M36.987 24.938c-2.104 0-3.648.11-5.045.36v-.344c.295-.173.496-.478.514-.83.005-.098.497-9.816.81-12.304.03-.227.056-.456.082-.684.329-2.826.654-3.706 2.044-3.706 1.368 0 1.906 1.246 1.987 4.594.043 1.782.255 9.48.352 13.011a2.973 2.973 0 0 0-.744-.097m-9.656.392c-.822-.142-1.38.048-1.748.294.01-.076.012-.152.004-.23-.023-.227-.074-1.373 1.175-1.587 2.667-.457 3.814.86 3.85.903.083.105.186.183.297.247v.53c-.934.144-1.88.137-3.578-.157m3.185 6.688l.396.03c.004 1.334 0 3.713-.062 4.532-.047.616-.275 1.064-.698 1.371-.852.617-2.36.548-3.269.408.006-.032.015-.061.02-.093.269-1.561-.287-5.183-.858-8.193.949.95 2.43 1.777 4.47 1.945m-4.63 6.073c-.114.665-.412 1.146-.912 1.471-1.03.67-2.615.502-3.337.379a4.898 4.898 0 0 0-.058-.518c-.467-2.756-1.406-7.56-1.792-9.518.035-.03.072-.056.102-.091.236-.272.314-.646.205-.99-.006-.016-.53-1.716.609-2.173 1.418-.57 3.214-.234 3.552-.163.543 2.461 2.004 9.437 1.631 11.603m-5.704 3.307c-.545.506-1.55.553-2.33.484-1.567-3.536-2.657-8.105-2.614-10.315.01-.556.234-.806.401-.946.761-.633 2.425-.576 3.142-.488.388 1.972 1.317 6.732 1.78 9.463.14.83.013 1.436-.38 1.802m19.654-15.043c-.06-2.17-.34-12.303-.391-14.38-.047-1.978-.16-6.61-4.05-6.61-3.453 0-3.824 3.198-4.096 5.532l-.079.665c-.24 1.904-.567 7.633-.728 10.617-.948-.42-2.296-.714-4.078-.407-1.67.287-2.486 1.429-2.772 2.54-.975-.096-2.41-.1-3.708.423-1.598.642-2.036 2.057-2.027 3.276-1.067.007-2.557.169-3.583 1.02-.733.608-1.13 1.47-1.15 2.496-.069 3.568 2.24 11.831 5.216 15.274 1.455 1.685 1.386 2.951 1.306 4.417-.02.356-.038.71-.038 1.066a1.032 1.032 0 1 0 2.064 0c0-.319.018-.635.035-.953.087-1.588.196-3.564-1.805-5.88-.559-.647-1.099-1.516-1.6-2.512a.71.71 0 0 0 .032.001c.841 0 1.828-.161 2.5-.785.34-.315.565-.71.679-1.18.344.056.817.11 1.345.11.85 0 1.836-.142 2.627-.655.431-.28.764-.645 1.002-1.084.366.065.93.142 1.564.142.886 0 1.899-.151 2.657-.7.675-.488 1.054-1.205 1.124-2.13.064-.844.068-3.167.065-4.528 2.046.176 2.479.383 2.731 1.463.347 1.484.498 2.365.413 3.285-2.603 1.251-4.935 3.535-6.034 5.942a.976.976 0 0 0 1.775.81c.98-2.144 3.15-4.18 5.532-5.187a.976.976 0 0 0 .58-.727c.282-1.576.026-2.887-.366-4.567-.624-2.68-2.722-2.836-5.15-3.018-.24-.018-.49-.036-.75-.058-2.006-.165-3.255-1.15-3.756-2.015-.25-.433-.255-.72-.237-.816a.86.86 0 0 1 .315.01c2.314.402 3.534.322 4.86.048.979-.203 2.354-.41 5.13-.41.204 0 .49.052.937.42.05.085.107.166.18.234 2.53 2.387 5.044 9.61 5.07 10.687 0 1.246-1.002 4.605-4.774 8.387-.092.089-2.246 2.208-2.246 5.666a1.032 1.032 0 1 0 2.065 0c0-2.555 1.602-4.167 1.629-4.193 3.978-3.989 5.39-7.804 5.39-9.86 0-1.514-2.518-8.814-5.405-11.876" fill="#00953A"/></g></svg>