<svg width="62" height="62"><g transform="translate(1 1)" fill="none" fill-rule="evenodd"><circle stroke="#00973B" stroke-width="2" fill="#FFF" cx="30" cy="30" r="30"/><path d="M12.093 34.916c.004.07.05.177.138.315.052.077.22.29.56.477.118.065.348.133.59.206.17.053.33.103.527.197.278.136.494.312.644.523.164.221.293.544.344.859.054.33.054.651 0 1.01-.036.22-.107.425-.164.59-.03.085-.07.203-.073.24.005.022.019.076.025.092l.036.038.041.091c.07.198.187.342.349.43l.235.129-.15.222c-.005.007-.017.03-.026.102-.009.083-.012.22.039.508.017.055.019.107.02.15.002.017 0 .036.005.052.215.096.39.189.539.31.176.145.296.283.4.41.11.144.24.315.347.584.18.472.195.943.186 1.343l-.007.24c-.01.281-.018.546.01.78.022.168.05.293.086.39.048.131.121.281.204.423.083.14.179.27.268.366a.688.688 0 0 0 .086.077l.177.08c.63.271 1.465.35 2.408.23a8.882 8.882 0 0 0 1.987-.492c.317-.113.677-.241 1.096-.338.293-.066.567-.098.829-.098.13 0 .259.008.385.024.522.065.963.296 1.241.478.354.223.62.502.885.792l.622.716c.2.228.456.534.675.876.225.348.398.694.537.986.292.631.541 1.251.814 1.938.123.281.24.659.376 1.137l.024.13c.049.294.098.596.115.901l.006.24a1.074 1.074 0 1 1-2.146 0v-.02l-.007-.22c-.01-.127-.027-.252-.044-.38l-.027-.211c-.016-.036-.037-.113-.059-.19a5.289 5.289 0 0 0-.204-.626 35.724 35.724 0 0 0-.727-1.838 6.35 6.35 0 0 0-.386-.752 5.626 5.626 0 0 0-.49-.66l-.603-.726c-.155-.177-.31-.348-.456-.44-.29-.204-.53-.242-.956-.16-.252.05-.536.142-.836.24-.23.075-.471.153-.72.22-.568.154-1.132.26-1.723.32-1.287.126-2.407-.025-3.335-.452l-.183-.086a1.975 1.975 0 0 1-.253-.147 2.346 2.346 0 0 1-.4-.36 3.867 3.867 0 0 1-.486-.696 4.476 4.476 0 0 1-.317-.72 3.453 3.453 0 0 1-.153-.787c-.03-.379-.008-.71.011-1.004l.015-.242c.021-.319.006-.556-.046-.71a1.333 1.333 0 0 0-.222-.3.197.197 0 0 0-.071-.041c-.066-.023-.119-.04-.179-.066a1.196 1.196 0 0 1-.352-.22c-.192-.177-.27-.336-.326-.45a1.913 1.913 0 0 1-.144-.426 1.89 1.89 0 0 1-.016-.73c.012-.061.028-.115.046-.162a.582.582 0 0 1-.133-.114 1.549 1.549 0 0 1-.331-.541 1.918 1.918 0 0 1-.113-.518c-.018-.367.078-.63.143-.803l.021-.06c.065-.168.102-.27.116-.342.032-.18.04-.381.02-.535a.59.59 0 0 0-.077-.248.318.318 0 0 0-.11-.082c-.081-.041-.2-.083-.314-.12l-.109-.036a3.883 3.883 0 0 1-.738-.297 3.011 3.011 0 0 1-1.029-.945 2.148 2.148 0 0 1-.31-.757c-.031-.176-.033-.249-.033-.249l-.005-.12c0-.115.006-.255.047-.425.061-.303.248-.678.57-1.137.146-.218.311-.478.497-.77l.387-.607c.286-.496.686-1.19.992-1.96.12-.314.245-.689.245-1.072-.002-.347-.067-.772-.206-1.337-.035-.152-.074-.303-.115-.459-.098-.376-.209-.801-.275-1.291a16.727 16.727 0 0 1-.091-1.962c.01-1.403.187-2.848.524-4.293.203-.836.443-1.59.733-2.308.301-.766.735-1.565 1.254-2.309a13.057 13.057 0 0 1 1.8-2.095 15.34 15.34 0 0 1 2.304-1.752c1.692-1.023 3.608-1.77 5.696-2.225a25.627 25.627 0 0 1 6.548-.54c2.588.112 4.948.643 7.014 1.577a15.816 15.816 0 0 1 6.094 4.845l.307.39c.073.097.134.194.195.291l.635 1c.13.189.233.397.331.598.05.103.101.207.156.308l.161.319c.105.203.208.406.3.615.642 1.556 1.03 2.784 1.257 3.985l.072.347c.05.23.099.46.132.693l.2 1.572.046.913c.012.24.025.479.03.72a19.416 19.416 0 0 1-.509 4.413 18.056 18.056 0 0 1-1.608 4.261 22.436 22.436 0 0 1-1.174 1.973l-.946 1.358c-.372.53-.732 1.204-.735 1.21-.094.179-.18.37-.27.569l-.131.291c-.188.596-.383 1.267-.397 1.987-.118 2.098.598 4.038 1.22 5.298.147.283.308.574.486.877l.074.117a1.297 1.297 0 0 1-2.229 1.328l-.069-.126c-.207-.35-.395-.69-.571-1.03-1.106-2.243-1.61-4.462-1.501-6.6.027-1.056.334-2.089.563-2.774l.066-.15c.163-.368.317-.716.49-1.04a9.53 9.53 0 0 1 .874-1.43l.93-1.326c.327-.5.71-1.101 1.036-1.732a15.63 15.63 0 0 0 1.401-3.664c.29-1.205.445-2.483.459-3.8l-.059-1.428-.17-1.41c-.024-.192-.065-.384-.105-.574-.024-.115-.048-.228-.07-.343-.233-1.303-.672-2.5-1.07-3.499-.072-.167-.156-.332-.239-.497a15.907 15.907 0 0 1-.15-.304c-.048-.089-.096-.19-.145-.292-.08-.17-.156-.33-.253-.471l-.56-.902c-.046-.074-.091-.149-.143-.22l-.267-.342a13.555 13.555 0 0 0-5.129-4.174c-1.783-.835-3.851-1.327-6.147-1.462a23.5 23.5 0 0 0-5.986.395c-1.863.37-3.572.998-5.08 1.866-.758.456-1.435.949-2.009 1.462a11.235 11.235 0 0 0-1.569 1.746c-.781 1.046-1.335 2.261-1.795 3.943a17.828 17.828 0 0 0-.577 3.884 15.54 15.54 0 0 0 .032 1.746c.033.334.117.702.205 1.09.036.159.073.318.105.477.114.534.216 1.112.2 1.726-.021.647-.226 1.208-.401 1.625-.376.862-.784 1.52-1.144 2.102l-.027.045-.366.532c-.23.338-.432.634-.613.886-.399.514-.41.718-.408.754l.002.053zm40.794 24.02l-.024-.22.024.22z" fill="#00953A"/><path d="M34.27 35.613c-.996 0-1.946-.2-2.816-.557a8.64 8.64 0 0 0 3.401-6.396 8.66 8.66 0 0 0 3.992-6.341 7.425 7.425 0 0 1 2.864 5.854c0 4.102-3.338 7.44-7.44 7.44m-4.026-1.192a7.444 7.444 0 0 1-3.314-5.08 8.611 8.611 0 0 0 6.629 0 7.443 7.443 0 0 1-3.315 5.08m-4.025 1.192c-4.102 0-7.44-3.338-7.44-7.44a7.425 7.425 0 0 1 2.864-5.854 8.663 8.663 0 0 0 3.992 6.341 8.64 8.64 0 0 0 3.4 6.396c-.87.357-1.819.557-2.816.557m0-14.88c.997 0 1.947.2 2.817.557a8.651 8.651 0 0 0-3.368 5.907 7.42 7.42 0 0 1-2.852-5.633 7.388 7.388 0 0 1 3.403-.831m4.025-6.83c3.705 0 6.777 2.724 7.34 6.273a8.605 8.605 0 0 0-7.34.336 8.603 8.603 0 0 0-7.339-.337c.563-3.548 3.635-6.273 7.34-6.273m1.208 7.388a7.385 7.385 0 0 1 6.22.275 7.422 7.422 0 0 1-2.853 5.632 8.651 8.651 0 0 0-3.367-5.907m7.426-.434c-.254-4.548-4.024-8.173-8.635-8.173-4.61 0-8.38 3.625-8.634 8.173-2.429 1.535-4.05 4.237-4.05 7.317 0 4.775 3.885 8.66 8.66 8.66a8.599 8.599 0 0 0 4.024-1 8.599 8.599 0 0 0 4.025 1c4.775 0 8.66-3.885 8.66-8.66 0-3.08-1.62-5.782-4.05-7.317" fill="#00953A"/></g></svg>