<svg width="62" height="62"><g transform="translate(1 1)" fill="none" fill-rule="evenodd"><circle stroke="#00973B" stroke-width="2" fill="#FFF" cx="30" cy="30" r="30"/><path d="M36.124 33.921a3.115 3.115 0 0 0-1.281-.262c-.486.016-.951.159-1.348.414-.454.293-.79.693-.969 1.153a4.53 4.53 0 0 0-.302 1.287c-.074.778-.005 1.58.212 2.456.216.834.536 1.58.953 2.216a.243.243 0 0 0 .447-.151l-.17-2.258c-.048-.84-.043-1.513.014-2.121.033-.354.091-.674.18-.978.04-.218.232-.438.4-.619.375-.365.976-.591 1.788-.673a.243.243 0 0 0 .076-.464M29.17 47.259a24.418 24.418 0 0 1-1.438-2.942 1.45 1.45 0 0 1-.64.397s-1.766.407-4.71.407c-2.946 0-4.712-.407-4.712-.407-.928-.293-1.002-1.127-1.002-1.127-3.202-12.144-2.807-30.603-2.807-30.603h17.731s-.126 7.82-1.096 16.626a7.204 7.204 0 0 1 1.386-.473c.047-.012.093-.019.14-.029.318-4.82.543-10.44.543-16.73 0 0 .09-1.158-1.03-1.158H13.227c-1.12 0-1.03 1.159-1.03 1.159 0 21.679 2.665 35.489 2.665 35.489.172 1.168 3.42 2.11 7.52 2.11 3.711 0 6.716-.774 7.38-1.787a13.211 13.211 0 0 1-.591-.932" fill="#00953A"/><path d="M19.937 42.173a.487.487 0 0 1-.58-.31 34.606 34.606 0 0 1-1.05-3.582 42.474 42.474 0 0 1-.723-3.644 45.483 45.483 0 0 1-.43-3.698c-.114-1.501-.149-2.652-.112-3.728a.489.489 0 0 1 .465-.47.483.483 0 0 1 .507.423l.114.882c.12.92.238 1.836.366 2.751l.106.735c.137.96.273 1.918.429 2.874.171 1.14.371 2.292.566 3.407l.034.197c.099.6.214 1.195.331 1.789.05.315.11.61.168.903.061.306.122.612.171.921a.488.488 0 0 1-.362.55zm-4.815-16.807c.498 5.851 1.338 12.624 2.743 17.957l.03.114.004.04c.02.036.072.081.172.118.28.058 1.914.373 4.447.373 2.536 0 4.171-.316 4.447-.373.1-.037.153-.082.172-.117l.003-.04.03-.115c.044-.162.084-.33.126-.496-1.145-3.562-1.217-6.993-.095-9.558.52-1.187 1.271-2.136 2.21-2.841.198-1.725.365-3.43.504-5.062H15.122z" fill="#00953A"/><path d="M45.865 45.519c-.746 1.081-2.02 2.314-3.243 2.314-.939 0-1.87-.712-2.34-1.137l-1.226-1.104-1.226 1.104c-.47.425-1.402 1.137-2.34 1.137-1.224 0-2.262-1.358-2.916-2.496-2.318-4.036-3.078-8.33-1.935-10.943.487-1.115 1.325-1.611 2.399-2.039.842-.336 1.58-.35 2.265-.35.785 0 1.447.196 2.045.432l1.182.467s.545.223 1.114-.14c0 0 1.56-1.515 4.48-1.16 0 0 3.344-.128 4.27 3.874 0 0 .966 4.971-2.53 10.04m-.383-14.948c-2.374-.542-4.07-.314-5.214.097a14.758 14.758 0 0 0-.425-3.005 12.605 12.605 0 0 0-.857-2.36c.15-.177.31-.361.49-.56 2.111-2.322 7.036-4.983 7.036-4.983-2.182 1.7-4.773 4.224-5.82 7.005 0 0-.134.318.09.623 0 0 .212.294.527.294 1.298.002 2.949-.065 5.428-1.792 3.086-2.149 4.85-8.58 4.85-8.58s-8.281-1.194-10.967 1.79c-1.492 1.657-1.878 3.934-1.927 5.633a12.463 12.463 0 0 0-1.343-1.984 1.126 1.126 0 0 0-1.735 1.434 10.149 10.149 0 0 1 2.045 4.034c.205.805.32 1.647.361 2.519-1.143-.451-2.89-.736-5.39-.165-5.226 1.196-5.674 8.66-1.643 15.679 3.07 5.343 6.572 3.156 8.069 1.807 1.496 1.349 4.998 3.536 8.067-1.807 4.032-7.018 3.584-14.483-1.642-15.679" fill="#00953A"/></g></svg>