<svg width="62" height="62"><g transform="translate(1 1)" fill="none" fill-rule="evenodd"><circle stroke="#00973B" stroke-width="2" fill="#FFF" cx="30" cy="30" r="30"/><path d="M27.01 21.093c-.803.006-1.311.525-1.303 1.333a1.288 1.288 0 0 0 1.296 1.303c.761.008 1.328-.557 1.331-1.329.005-.803-.512-1.313-1.324-1.307M20.676 27.918c-.804.005-1.312.524-1.304 1.333a1.288 1.288 0 0 0 1.297 1.302c.76.009 1.327-.556 1.33-1.329.005-.803-.512-1.312-1.323-1.306" fill="#00953A"/><path d="M18.928 29.63c-.804.006-1.311.525-1.303 1.333a1.288 1.288 0 0 0 1.296 1.303c.761.008 1.327-.557 1.331-1.329.004-.803-.512-1.313-1.324-1.307M21.99 25.7c-.805.005-1.312.524-1.304 1.332a1.288 1.288 0 0 0 1.296 1.303c.761.008 1.327-.557 1.331-1.329.005-.803-.512-1.313-1.324-1.307" fill="#00953A"/><path d="M23.143 23.343c-.804.006-1.312.525-1.303 1.333a1.288 1.288 0 0 0 1.296 1.303c.76.007 1.327-.557 1.33-1.33.005-.803-.512-1.312-1.323-1.306M17.024 43.273s24.76.055 26.754 0c1.993-.056.46-1.291-1.91-1.526-6.976-.69-12.291-1.327-16.834-2.435 0 0-12.675 3.217-8.01 3.961" fill="#00953A"/><path d="M48.762 32.021c-.79.012-1.433-.6-1.45-1.38-.015-.742.657-1.423 1.414-1.429.75-.004 1.414.66 1.423 1.425.008.711-.653 1.371-1.387 1.384m-4 1.623c-.735.001-1.395-.64-1.413-1.373-.018-.766.63-1.444 1.392-1.457.764-.013 1.437.642 1.445 1.404.005.764-.656 1.426-1.424 1.426m-7.887-2.599c-3.207 1.166-8.876 4.318-10.204 5.226-.058.04-.11-.003-.074-.069.341-.619 1.35-2.562 2.659-3.98 2.736-2.958 5.525-3.828 9.536-4.38 1.575-.218 4.828.548 4.753.885-.035.157-.586.293-.725.34-2.095.712-3.865 1.22-5.945 1.978m-13.327 7.12c-3.108 1.664-6.42 2.371-9.945 2.36-2.139-.007-4.251-.234-5.363-2.121-.937-1.592-1.448-3.773 4.296-5.18 1.55-.379 5.089-.605 7.51-3.41.11-.128.203-.277.306-.432.207-.306.424-.655.65-1.05a211.92 211.92 0 0 0 1.837-3.293c.326-.59.627-1.143.882-1.617.302-.557.544-1.008.696-1.29a10.827 10.827 0 0 1 1.766-1.935c.39-.33.788-.401 1.3-.277 2.787.68 5.59 1.28 8.458 1.493.57.042 1.136.042 1.704-.063 1.878-.348 3.053-1.422 3.51-3.289.224-.91.41-1.836.863-2.675a3.136 3.136 0 0 1 1.419-1.375c.196-.094.413-.16.506.106.533 1.515 1.791 2.487 2.74 3.69l.097.117c.59.718.587.715.11 1.514-.65 1.087-.983 2.276-1.07 3.53-.052.74-.048 1.478.015 2.212-2.424-.5-5.38-.21-7.472.131a17.992 17.992 0 0 0-2.657.542h.003c-3.39.974-6.004 2.94-8.455 6.091-1.264 1.626-2.903 5.205-2.903 5.205-.081.34-.491.848-.803 1.016m29.686-11.634c-.356-.587-.686-1.19-1.037-1.782a3.42 3.42 0 0 1-.418-1.07c-.187-.922-.425-1.833-.995-2.611-1.267-1.735-2.587-3.43-4.023-5.026-.757-.843-1.455-1.696-1.856-2.779-.278-.752-.655-.791-1.437-.612-3.464.8-4.197 3.742-4.43 4.582-.286 1.03-.952 1.652-1.964 1.966-.812.25-5.907.29-8.043-.14-.255-.052-.352-.176-.366-.446-.055-1.11-.5-1.624-1.594-1.883-.572-.136-1.154-.233-1.714-.4-.703-.208-1.21.043-1.621.589-.234.31-.4.657-.533 1.022-.487 1.335-.69 2.726-.846 4.13-.066.576-.026 1.173-.312 1.717-.646 1.233-1.211 2.514-1.93 3.702-.863 1.423-1.964 2.642-3.648 3.143-1.48.439-2.772.626-4.514 1-4.91 1.059-6.31 3.405-6.084 5.651.234 2.308 1.876 4.645 4.651 5.32 1.836.445 3.707.583 5.473.642.348.011.692.02 1.03.027 1.65-.011 3.104-.11 4.56-.224 2.2-.171 4.229-.784 6.06-2.073a13.53 13.53 0 0 1 2.284-1.291c1.151-.515 2.368-.88 3.63-1.142a129.637 129.637 0 0 0 12.983-3.417c1.583-.505 3.173-1.008 4.639-1.8 2.248-1.214 3.853-3.835 2.055-6.795" fill="#00953A"/></g></svg>