<svg width="197" height="197"><g fill="none" fill-rule="evenodd"><circle fill="#FFF" cx="99" cy="99" r="79"/><path d="M175.212 99.667c-.482 27.187-15.157 50.907-36.95 64.046L149.11 182.5c28.274-16.893 47.323-47.618 47.808-82.833h-21.706z" fill="#FCBA1D"/><path d="M98.902 174.636c-13.417 0-26.02-3.472-36.975-9.55l-10.85 18.793c14.148 7.922 30.457 12.444 47.825 12.444 17.368 0 33.677-4.522 47.825-12.445l-10.85-18.794c-10.956 6.078-23.558 9.55-36.975 9.55" fill="#E45C0A"/><path d="M22.592 99.667H.886c.486 35.215 19.534 65.94 47.808 82.834l10.847-18.787c-21.79-13.14-36.465-36.86-36.948-64.046" fill="#D90015"/><path d="M59.541 32.87L48.695 14.08C20.42 30.975 1.372 61.7.886 96.916h21.707c.482-27.187 15.156-50.907 36.948-64.046" fill="#B792DB"/><path d="M175.212 96.915h21.706c-.485-35.216-19.534-65.94-47.808-82.835l-10.847 18.788c21.792 13.14 36.467 36.86 36.95 64.047" fill="#128B34"/><path d="M98.902 21.946c13.417 0 26.02 3.472 36.975 9.55l10.85-18.794C132.58 4.78 116.27.258 98.902.258c-17.368 0-33.677 4.522-47.825 12.444l10.85 18.794c10.956-6.078 23.558-9.55 36.975-9.55" fill="#0F5AC3"/><path fill="red" d="M100.552 53.205l-4.635 7.338v-7.338h-2.573l-5.536 8.626h3.22l2.316-3.86v7.076h3.09l4.118-7.077v7.076h2.704v-11.84"/><path fill="red" d="M87.037 53.205H84.46v11.84h6.566v-2.313h-3.99m-6.058-1.81h-2.173L79.956 59l1.023-1.798v3.72zm-.257-7.69l-.765 1.28-6.518 10.508h3.195l1.406-2.305h2.94v2.305h2.557V53.232H80.72zm-4.275-.002l-4.358 7.048V53.23H69.14l-4.23 7.048V53.23h-2.693v11.79h2.692l4.742-7.434v7.434h2.436l7.305-11.79m30.548 5.584l.904-1.612v3.72H108.8L109.82 59l.12-.186zm-.12 3.9h1.024v2.308h2.556v-11.79h-2.686l-.894 1.28-6.515 10.51h3.192l1.407-2.307h1.916zm9.133-4.357h-1.66v-3.202h1.66c1.022.128 1.53.51 1.53 1.538 0 1.024-.508 1.534-1.53 1.664m3.702.128c.128-.51.256-.898.256-1.283 0-.64 0-1.15-.127-1.793-.385-1.153-1.53-1.793-2.808-2.05-.386-.128-.64-.128-1.022-.128h-4.34v11.79h2.68v-4.485c.893 0 1.15.897 1.532 1.406l.25.536 1.153 2.54h2.683l-2.428-4.998c1.025-.253 1.79-.77 2.173-1.537m7.218-5.253l-3.573 4.616V53.23h-2.68v11.79h2.68v-4.483l3.32 4.483h3.056L128.09 59l4.59-5.77m2.11 1.3h.4c.172 0 .29.013.356.04a.32.32 0 0 1 .146.112c.036.05.054.11.054.174 0 .1-.036.18-.11.24-.075.062-.213.093-.417.093h-.43v-.66zm0 1.89v-.93h.207c.123 0 .218.026.283.076.093.068.215.236.37.507l.19.346h.43l-.266-.43a2.511 2.511 0 0 0-.32-.433.597.597 0 0 0-.187-.115.674.674 0 0 0 .453-.2.58.58 0 0 0 .07-.736.546.546 0 0 0-.275-.21c-.115-.04-.3-.062-.558-.062h-.75v2.185h.353zm1.37-2.598c.27.146.48.356.633.626.15.272.227.554.227.848 0 .293-.074.572-.225.842a1.584 1.584 0 0 1-.626.626c-.27.15-.55.224-.84.224-.294 0-.576-.075-.844-.224-.27-.15-.48-.36-.628-.626a1.73 1.73 0 0 1-.224-.842c0-.294.077-.576.228-.848.154-.27.364-.48.634-.626.27-.146.547-.22.833-.22.28 0 .56.074.83.22zm-1.83-.293c-.324.173-.58.423-.76.75-.18.325-.272.665-.272 1.016 0 .35.09.686.268 1.008.18.324.43.575.752.752.323.178.658.268 1.01.268.35 0 .69-.09 1.01-.268.32-.177.572-.428.75-.752a2.035 2.035 0 0 0-.004-2.025 1.838 1.838 0 0 0-.758-.75 2.059 2.059 0 0 0-.997-.262c-.342 0-.675.085-1 .26z"/><path d="M42.64 92.276h3.672c.4 1.517 1.41 2.688 3.247 2.688 1.86 0 3.032-1.038 3.032-2.555 0-1.598-.958-2.556-2.874-2.556H47.27V86.82h2.474c1.624 0 2.583-.877 2.583-2.395 0-1.463-1.065-2.34-2.742-2.34-1.837 0-2.847 1.223-3.22 2.74h-3.7c.666-3.885 3.434-5.908 6.947-5.908 3.7 0 6.413 2.05 6.413 5.243 0 1.836-.985 3.273-2.475 4.07 1.677.746 2.74 2.236 2.74 4.312 0 3.433-2.846 5.642-6.758 5.642-3.46 0-6.227-2.023-6.893-5.908m26.293-9.9h-4.178v2.74c0 3.753-.373 6.973-1.676 9.608h5.854V82.376zm2.315 19.852v-4.205h-10.51v4.205H57.17v-7.504h1.783c1.57-2.422 2.262-6.44 2.262-10.805v-4.844H72.63v15.648h2.183v7.504h-3.566zm13.147-19.852h-3.46v5.19h3.46c1.677 0 2.74-1.04 2.74-2.582 0-1.544-1.063-2.608-2.74-2.608m.187 8.516h-3.646v7.13h-3.698V79.077h7.345c3.94 0 6.254 2.688 6.254 5.908s-2.315 5.908-6.253 5.908m13.863-6.228l-2.395 6.892h4.71l-2.314-6.892zm4.418 13.36l-1.117-3.354h-6.734l-1.143 3.354h-3.86l6.893-18.947h2.9l6.92 18.947h-3.86zm13.226-3.301c1.517 0 2.475-.905 2.475-2.342s-.958-2.315-2.475-2.315h-3.86v4.657h3.86zm-.24-7.983c1.517 0 2.45-.825 2.45-2.182 0-1.356-.933-2.182-2.45-2.182h-3.62v4.365h3.62zm5.243 2.582c.825.878 1.17 1.943 1.17 3.273 0 3.326-2.235 5.43-5.8 5.43h-7.93v-18.95h7.61c3.566 0 5.854 2.022 5.854 5.215 0 1.81-.77 3.14-2.342 4.02.746.398 1.04.61 1.438 1.01zm4.417 8.701V79.077h12.48v3.3h-8.78v4.444h7.478v3.3h-7.48v4.604h8.783v3.3m13.201-.001v-7.93h-6.414v7.93h-3.698V79.077h3.698v7.744h6.414v-7.743h3.7v18.947M54.83 129.65v-13.8l-8.363 13.8h-3.745v-21.5h4.197v13.77l8.364-13.77h3.745v21.5m15.888 0v-9H67.64l-.002 9H63.44v-21.5h4.198v8.786h7.278v-8.787h4.197v21.5m15.677-17.755h-4.74v3.11c0 4.257-.423 7.91-1.903 10.9h6.643v-14.01zm2.627 22.526v-4.77H85.49v4.77h-4.046v-8.515h2.023c1.78-2.748 2.566-7.308 2.566-12.26v-5.497h12.954v17.756h2.476v8.516h-4.046zm6.799-4.77v-21.5h14.163v3.743h-9.967v5.043h8.486v3.744h-8.487v5.224h9.966v3.745m15.346.001l-7.55-11.265 6.946-10.236h5.012l-7.218 10.084 7.942 11.415h-5.133zm-11.777 0h4.197v-21.5h-4.197v21.5zm25.611.18c-2.476 0-4.288-.815-5.768-2.265-2.145-2.144-2.175-4.56-2.175-8.665 0-4.108.03-6.524 2.174-8.668 1.48-1.45 3.29-2.264 5.767-2.264 4.016 0 7.096 2.294 7.88 6.794h-4.287c-.423-1.752-1.51-3.05-3.593-3.05-1.147 0-2.084.424-2.688 1.118-.786.906-1.058 1.963-1.058 6.07 0 4.106.272 5.163 1.057 6.07.603.694 1.54 1.116 2.687 1.116 2.083 0 3.2-1.298 3.624-3.05h4.258c-.785 4.5-3.895 6.795-7.88 6.795" fill="#919191"/></g></svg>