<svg width="197" height="197"><g fill="none" fill-rule="evenodd"><circle fill="#FFF" cx="99" cy="99" r="79"/><path d="M175.212 99.667c-.482 27.187-15.157 50.907-36.95 64.046L149.11 182.5c28.274-16.893 47.323-47.618 47.808-82.833h-21.706z" fill="#FCBA1D"/><path d="M98.902 174.636c-13.417 0-26.02-3.472-36.975-9.55l-10.85 18.793c14.148 7.922 30.457 12.444 47.825 12.444 17.368 0 33.677-4.522 47.825-12.445l-10.85-18.794c-10.956 6.078-23.558 9.55-36.975 9.55" fill="#E45C0A"/><path d="M22.592 99.667H.886c.486 35.215 19.534 65.94 47.808 82.834l10.847-18.787c-21.79-13.14-36.465-36.86-36.948-64.046" fill="#D90015"/><path d="M59.541 32.87L48.695 14.08C20.42 30.975 1.372 61.7.886 96.916h21.707c.482-27.187 15.156-50.907 36.948-64.046" fill="#B792DB"/><path d="M175.212 96.915h21.706c-.485-35.216-19.534-65.94-47.808-82.835l-10.847 18.788c21.792 13.14 36.467 36.86 36.95 64.047" fill="#128B34"/><path d="M98.902 21.946c13.417 0 26.02 3.472 36.975 9.55l10.85-18.794C132.58 4.78 116.27.258 98.902.258c-17.368 0-33.677 4.522-47.825 12.444l10.85 18.794c10.956-6.078 23.558-9.55 36.975-9.55" fill="#0F5AC3"/><path fill="red" d="M100.552 53.205l-4.635 7.338v-7.338h-2.573l-5.536 8.626h3.22l2.316-3.86v7.076h3.09l4.118-7.077v7.076h2.704v-11.84"/><path fill="red" d="M87.037 53.205H84.46v11.84h6.566v-2.313h-3.99m-6.058-1.81h-2.173L79.956 59l1.023-1.798v3.72zm-.257-7.69l-.765 1.28-6.518 10.508h3.195l1.406-2.305h2.94v2.305h2.557V53.232H80.72zm-4.275-.002l-4.358 7.048V53.23H69.14l-4.23 7.048V53.23h-2.693v11.79h2.692l4.742-7.434v7.434h2.436l7.305-11.79m30.548 5.584l.904-1.612v3.72H108.8L109.82 59l.12-.186zm-.12 3.9h1.024v2.308h2.556v-11.79h-2.686l-.894 1.28-6.515 10.51h3.192l1.407-2.307h1.916zm9.133-4.357h-1.66v-3.202h1.66c1.022.128 1.53.51 1.53 1.538 0 1.024-.508 1.534-1.53 1.664m3.702.128c.128-.51.256-.898.256-1.283 0-.64 0-1.15-.127-1.793-.385-1.153-1.53-1.793-2.808-2.05-.386-.128-.64-.128-1.022-.128h-4.34v11.79h2.68v-4.485c.893 0 1.15.897 1.532 1.406l.25.536 1.153 2.54h2.683l-2.428-4.998c1.025-.253 1.79-.77 2.173-1.537m7.218-5.253l-3.573 4.616V53.23h-2.68v11.79h2.68v-4.483l3.32 4.483h3.056L128.09 59l4.59-5.77m2.11 1.3h.4c.172 0 .29.013.356.04a.32.32 0 0 1 .146.112c.036.05.054.11.054.174 0 .1-.036.18-.11.24-.075.062-.213.093-.417.093h-.43v-.66zm0 1.89v-.93h.207c.123 0 .218.026.283.076.093.068.215.236.37.507l.19.346h.43l-.266-.43a2.511 2.511 0 0 0-.32-.433.597.597 0 0 0-.187-.115.674.674 0 0 0 .453-.2.58.58 0 0 0 .07-.736.546.546 0 0 0-.275-.21c-.115-.04-.3-.062-.558-.062h-.75v2.185h.353zm1.37-2.598c.27.146.48.356.633.626.15.272.227.554.227.848 0 .293-.074.572-.225.842a1.584 1.584 0 0 1-.626.626c-.27.15-.55.224-.84.224-.294 0-.576-.075-.844-.224-.27-.15-.48-.36-.628-.626a1.73 1.73 0 0 1-.224-.842c0-.294.077-.576.228-.848.154-.27.364-.48.634-.626.27-.146.547-.22.833-.22.28 0 .56.074.83.22zm-1.83-.293c-.324.173-.58.423-.76.75-.18.325-.272.665-.272 1.016 0 .35.09.686.268 1.008.18.324.43.575.752.752.323.178.658.268 1.01.268.35 0 .69-.09 1.01-.268.32-.177.572-.428.75-.752a2.035 2.035 0 0 0-.004-2.025 1.838 1.838 0 0 0-.758-.75 2.059 2.059 0 0 0-.997-.262c-.342 0-.675.085-1 .26z"/><path fill="#919191" d="M40.464 127.6h4.17v-21.36h-4.17m21.48 21.36l-8.46-13.11v13.11h-4.17v-21.36h3.72l8.46 13.08v-13.08h4.17v21.36m15.15-16.32c-.69-.87-1.71-1.32-3.12-1.32h-3.18v13.92h3.18c1.41 0 2.43-.45 3.12-1.32.78-.93.87-2.28.87-5.64s-.09-4.71-.87-5.64m3.69 13.2c-1.53 2.13-3.54 3.12-6.45 3.12h-7.71v-21.36h7.71c2.91 0 4.92.99 6.45 3.12 1.32 1.83 1.35 4.02 1.35 7.56s-.03 5.73-1.35 7.56m5.311 3.12v-21.36h14.07v3.72h-9.9v5.01h8.43v3.72h-8.43v5.19h9.9v3.72m16.199 0l-5.49-9.72-2.76 3.3v6.42h-4.17v-21.36h4.17v9.3l7.53-9.3h5.07l-7.08 8.49 7.59 12.87m8.25.18c-3.24 0-5.7-.69-7.8-2.82l2.7-2.7c1.35 1.35 3.18 1.8 5.13 1.8 2.49 0 3.81-.96 3.81-2.67 0-.72-.21-1.32-.66-1.77-.42-.39-.84-.57-1.92-.72l-2.55-.39c-1.89-.27-3.18-.84-4.14-1.77-1.02-.99-1.53-2.4-1.53-4.2 0-3.81 2.82-6.48 7.44-6.48 2.94 0 5.07.72 6.9 2.49l-2.64 2.61c-1.32-1.29-2.97-1.47-4.38-1.47-2.22 0-3.27 1.23-3.27 2.7 0 .57.15 1.11.6 1.53.42.39 1.05.69 1.95.81l2.55.39c1.95.27 3.15.78 4.08 1.68 1.14 1.05 1.65 2.58 1.65 4.5 0 4.14-3.42 6.48-7.92 6.48m17.28 0c-3.24 0-5.7-.69-7.8-2.82l2.7-2.7c1.35 1.35 3.18 1.8 5.13 1.8 2.49 0 3.81-.96 3.81-2.67 0-.72-.21-1.32-.66-1.77-.42-.39-.84-.57-1.92-.72l-2.55-.39c-1.89-.27-3.18-.84-4.14-1.77-1.02-.99-1.53-2.4-1.53-4.2 0-3.81 2.82-6.48 7.44-6.48 2.94 0 5.07.72 6.9 2.49l-2.64 2.61c-1.32-1.29-2.97-1.47-4.38-1.47-2.22 0-3.27 1.23-3.27 2.7 0 .57.15 1.11.6 1.53.42.39 1.05.69 1.95.81l2.55.39c1.95.27 3.15.78 4.08 1.68 1.14 1.05 1.65 2.58 1.65 4.5 0 4.14-3.42 6.48-7.92 6.48M46.746 98.952H44.31l-5.504-16.677h3.373l3.348 10.868 3.35-10.868h3.396m2.011 16.677V82.275H65.27v2.905h-7.73v3.91h6.58v2.905h-6.58v4.053h7.73v2.904m7.77.14c-2.528 0-4.45-.54-6.09-2.202l2.11-2.108c1.053 1.054 2.482 1.406 4.004 1.406 1.945 0 2.975-.75 2.975-2.085 0-.562-.165-1.03-.516-1.382-.328-.303-.656-.444-1.5-.56l-1.99-.306c-1.475-.21-2.483-.656-3.232-1.382-.797-.773-1.195-1.873-1.195-3.278 0-2.975 2.202-5.06 5.81-5.06 2.294 0 3.957.562 5.386 1.944l-2.06 2.038c-1.032-1.007-2.32-1.148-3.42-1.148-1.734 0-2.554.96-2.554 2.108 0 .445.116.867.468 1.195.327.305.82.54 1.522.633l1.99.305c1.523.21 2.46.61 3.187 1.31.89.82 1.288 2.016 1.288 3.515 0 3.232-2.67 5.06-6.184 5.06m9.251-.143V82.275h10.984v2.905h-7.73v3.91h6.582v2.905h-6.58v4.053h7.728v2.904m3.182 0V82.275h3.256v13.773h7.565v2.904m2.643 0h3.256V82.275h-3.256v16.677zm-2.06-18.574h7.424v-2.06h-7.425v2.06zm15.854 11.57h-3.396v4.1h3.396c1.476 0 2.178-.938 2.178-2.062 0-1.124-.702-2.038-2.178-2.038m-.21-6.77h-3.186v3.842h3.185c1.382 0 2.155-.773 2.155-1.92 0-1.148-.773-1.92-2.155-1.92m.54 13.77h-6.98V82.276h6.697c3.256 0 5.154 1.827 5.154 4.684 0 1.85-1.22 3.044-2.062 3.442 1.008.47 2.296 1.523 2.296 3.748 0 3.115-2.132 4.8-5.106 4.8m13.792-11.756l-2.108 6.066h4.146l-2.038-6.066zm3.888 11.758l-.984-2.95h-5.925l-1.008 2.95h-3.396l6.066-16.677h2.552l6.09 16.677h-3.396zm10.043.14c-2.53 0-4.45-.54-6.09-2.202l2.11-2.108c1.052 1.054 2.48 1.406 4.003 1.406 1.945 0 2.975-.75 2.975-2.085 0-.562-.164-1.03-.515-1.382-.328-.303-.656-.444-1.5-.56l-1.99-.306c-1.475-.21-2.483-.656-3.232-1.382-.797-.773-1.195-1.873-1.195-3.278 0-2.975 2.203-5.06 5.81-5.06 2.295 0 3.958.562 5.387 1.944l-2.06 2.038c-1.032-1.007-2.32-1.148-3.42-1.148-1.734 0-2.554.96-2.554 2.108 0 .445.117.867.47 1.195.326.305.82.54 1.52.633l1.992.305c1.522.21 2.46.61 3.186 1.31.89.82 1.29 2.016 1.29 3.515 0 3.232-2.67 5.06-6.185 5.06"/></g></svg>