<svg width="197" height="197"><g fill="none" fill-rule="evenodd"><circle fill="#FFF" cx="99" cy="99" r="79"/><path d="M175.212 99.667c-.482 27.187-15.157 50.907-36.95 64.046L149.11 182.5c28.274-16.893 47.323-47.618 47.808-82.833h-21.706z" fill="#FCBA1D"/><path d="M98.902 174.636c-13.417 0-26.02-3.472-36.975-9.55l-10.85 18.793c14.148 7.922 30.457 12.444 47.825 12.444 17.368 0 33.677-4.522 47.825-12.445l-10.85-18.794c-10.956 6.078-23.558 9.55-36.975 9.55" fill="#E45C0A"/><path d="M22.592 99.667H.886c.486 35.215 19.534 65.94 47.808 82.834l10.847-18.787c-21.79-13.14-36.465-36.86-36.948-64.046" fill="#D90015"/><path d="M59.541 32.87L48.695 14.08C20.42 30.975 1.372 61.7.886 96.916h21.707c.482-27.187 15.156-50.907 36.948-64.046" fill="#B792DB"/><path d="M175.212 96.915h21.706c-.485-35.216-19.534-65.94-47.808-82.835l-10.847 18.788c21.792 13.14 36.467 36.86 36.95 64.047" fill="#128B34"/><path d="M98.902 21.946c13.417 0 26.02 3.472 36.975 9.55l10.85-18.794C132.58 4.78 116.27.258 98.902.258c-17.368 0-33.677 4.522-47.825 12.444l10.85 18.794c10.956-6.078 23.558-9.55 36.975-9.55" fill="#0F5AC3"/><path fill="red" d="M100.552 53.205l-4.635 7.338v-7.338h-2.573l-5.536 8.626h3.22l2.316-3.86v7.076h3.09l4.118-7.077v7.076h2.704v-11.84"/><path fill="red" d="M87.037 53.205H84.46v11.84h6.566v-2.313h-3.99m-6.058-1.81h-2.173L79.956 59l1.023-1.798v3.72zm-.257-7.69l-.765 1.28-6.518 10.508h3.195l1.406-2.305h2.94v2.305h2.557V53.232H80.72zm-4.275-.002l-4.358 7.048V53.23H69.14l-4.23 7.048V53.23h-2.693v11.79h2.692l4.742-7.434v7.434h2.436l7.305-11.79m30.548 5.584l.904-1.612v3.72H108.8L109.82 59l.12-.186zm-.12 3.9h1.024v2.308h2.556v-11.79h-2.685l-.894 1.28-6.515 10.51h3.193l1.406-2.307h1.917zm9.133-4.357h-1.66v-3.202h1.66c1.022.128 1.53.51 1.53 1.538 0 1.024-.508 1.534-1.53 1.664m3.702.128c.128-.51.256-.898.256-1.283 0-.64 0-1.15-.127-1.793-.385-1.153-1.53-1.793-2.808-2.05-.386-.128-.64-.128-1.022-.128h-4.34v11.79h2.68v-4.485c.893 0 1.15.897 1.532 1.406l.25.536 1.153 2.54h2.683l-2.428-4.998c1.025-.253 1.79-.77 2.173-1.537m7.218-5.253l-3.573 4.616V53.23h-2.68v11.79h2.68v-4.483l3.32 4.483h3.056L128.09 59l4.59-5.77m2.11 1.3h.4c.172 0 .29.013.356.04a.32.32 0 0 1 .146.112c.036.05.054.11.054.174 0 .1-.036.18-.11.24-.075.062-.213.093-.417.093h-.43v-.66zm0 1.89v-.93h.207c.123 0 .218.026.283.076.093.068.215.236.37.507l.19.346h.43l-.266-.43a2.511 2.511 0 0 0-.32-.433.597.597 0 0 0-.187-.115.674.674 0 0 0 .453-.2.58.58 0 0 0 .07-.736.546.546 0 0 0-.275-.21c-.115-.04-.3-.062-.558-.062h-.75v2.185h.353zm1.37-2.598c.27.146.48.356.633.626.15.272.227.554.227.848 0 .293-.074.572-.225.842a1.584 1.584 0 0 1-.626.626c-.27.15-.55.224-.84.224-.294 0-.576-.075-.844-.224-.27-.15-.48-.36-.628-.626a1.73 1.73 0 0 1-.224-.842c0-.294.077-.576.228-.848.154-.27.364-.48.634-.626.27-.146.547-.22.833-.22.28 0 .56.074.83.22zm-1.83-.293c-.324.173-.58.423-.76.75-.18.325-.272.665-.272 1.016 0 .35.09.686.268 1.008.18.324.43.575.752.752.323.178.658.268 1.01.268.35 0 .69-.09 1.01-.268.32-.177.572-.428.75-.752a2.035 2.035 0 0 0-.004-2.025 1.838 1.838 0 0 0-.758-.75 2.059 2.059 0 0 0-.997-.262c-.342 0-.675.085-1 .26z"/><path fill="#919191" d="M48.106 101.91h5.2V75.282h-5.2m27.15 26.628L64.71 85.57v16.343h-5.2V75.284h4.64L74.694 91.59V75.282h5.2v26.628M99.15 81.565c-.86-1.084-2.133-1.646-3.89-1.646h-3.965v17.353h3.964c1.757 0 3.03-.562 3.89-1.646.97-1.16 1.083-2.842 1.083-7.03 0-4.19-.112-5.873-1.084-7.032m4.6 16.456c-1.91 2.656-4.414 3.89-8.042 3.89h-9.612V75.282h9.612c3.628 0 6.133 1.234 8.04 3.89 1.647 2.28 1.684 5.01 1.684 9.424 0 4.413-.037 7.143-1.683 9.425m6.991 3.889V75.284h17.54v4.637h-12.34v6.246h10.508v4.638h-10.51v6.47h12.343v4.637m18.396-.002l-5.16-9.274-5.125 9.275h-5.946l8.265-13.65-7.743-12.977h5.91l4.637 8.602 4.675-8.602h5.87l-7.74 12.977 8.3 13.65M47.51 133.772v-3.526l9.568-14.984h-9.16v-3.903H62.24v3.462l-9.6 15.047h9.6v3.902m14.86-17.122c-.724-.913-1.794-1.385-3.273-1.385H70.49v14.606h3.337c1.48 0 2.55-.473 3.273-1.386.82-.976.913-2.392.913-5.918 0-3.525-.094-4.942-.913-5.918m3.872 13.85c-1.605 2.236-3.714 3.275-6.768 3.275h-8.09V111.36h8.09c3.054 0 5.163 1.038 6.768 3.273 1.385 1.92 1.417 4.22 1.417 7.933 0 3.714-.033 6.013-1.418 7.933m14.389-15.236h-4.125v5.918h4.124c1.92 0 3.18-1.227 3.18-2.958 0-1.73-1.26-2.96-3.18-2.96zm3.4 18.51l-4.377-8.94h-3.148v8.94H86.86V111.36h8.783c4.564 0 7.27 3.116 7.27 6.862 0 3.148-1.92 5.1-4.09 5.887l5.004 9.663H98.76zm16.212-15.803l-2.833 8.153h5.57l-2.738-8.153zm5.226 15.802l-1.323-3.966h-7.964l-1.353 3.966h-4.564l8.153-22.413h3.43l8.186 22.412h-4.564zm14.229 0h-3.273l-7.398-22.413h4.533l4.5 14.605 4.502-14.606h4.564m2.709 22.414h4.375V111.36h-4.376v22.412zm2.74-24.585h-2.74l2.015-5.35h4.31l-3.587 5.35z"/></g></svg>