<svg width="197" height="197"><g fill="none" fill-rule="evenodd"><circle fill="#FFF" cx="99" cy="99" r="79"/><path d="M175.212 99.667c-.482 27.187-15.157 50.907-36.95 64.046L149.11 182.5c28.274-16.893 47.323-47.618 47.808-82.833h-21.706z" fill="#FCBA1D"/><path d="M98.902 174.636c-13.417 0-26.02-3.472-36.975-9.55l-10.85 18.793c14.148 7.922 30.457 12.444 47.825 12.444 17.368 0 33.677-4.522 47.825-12.445l-10.85-18.794c-10.956 6.078-23.558 9.55-36.975 9.55" fill="#E45C0A"/><path d="M22.592 99.667H.886c.486 35.215 19.534 65.94 47.808 82.834l10.847-18.787c-21.79-13.14-36.465-36.86-36.948-64.046" fill="#D90015"/><path d="M59.541 32.87L48.695 14.08C20.42 30.975 1.372 61.7.886 96.916h21.707c.482-27.187 15.156-50.907 36.948-64.046" fill="#B792DB"/><path d="M175.212 96.915h21.706c-.485-35.216-19.534-65.94-47.808-82.835l-10.847 18.788c21.792 13.14 36.467 36.86 36.95 64.047" fill="#128B34"/><path d="M98.902 21.946c13.417 0 26.02 3.472 36.975 9.55l10.85-18.794C132.58 4.78 116.27.258 98.902.258c-17.368 0-33.677 4.522-47.825 12.444l10.85 18.794c10.956-6.078 23.558-9.55 36.975-9.55" fill="#0F5AC3"/><path fill="red" d="M100.552 53.205l-4.635 7.338v-7.338h-2.573l-5.536 8.626h3.22l2.316-3.86v7.076h3.09l4.118-7.077v7.076h2.704v-11.84"/><path fill="red" d="M87.037 53.205H84.46v11.84h6.566v-2.313h-3.99m-6.058-1.81h-2.173L79.956 59l1.023-1.798v3.72zm-.257-7.69l-.765 1.28-6.518 10.508h3.195l1.406-2.305h2.94v2.305h2.557V53.232H80.72zm-4.275-.002l-4.358 7.048V53.23H69.14l-4.23 7.048V53.23h-2.693v11.79h2.692l4.742-7.434v7.434h2.436l7.305-11.79m30.548 5.584l.904-1.612v3.72H108.8L109.82 59l.12-.186zm-.12 3.9h1.024v2.308h2.556v-11.79h-2.685l-.894 1.28-6.515 10.51h3.193l1.406-2.307h1.917zm9.133-4.357h-1.66v-3.202h1.66c1.022.128 1.53.51 1.53 1.538 0 1.024-.508 1.534-1.53 1.664m3.702.128c.128-.51.256-.898.256-1.283 0-.64 0-1.15-.127-1.793-.385-1.153-1.53-1.793-2.808-2.05-.386-.128-.64-.128-1.022-.128h-4.34v11.79h2.68v-4.485c.893 0 1.15.897 1.532 1.406l.25.536 1.153 2.54h2.683l-2.428-4.998c1.025-.253 1.79-.77 2.173-1.537m7.218-5.253l-3.573 4.616V53.23h-2.68v11.79h2.68v-4.483l3.32 4.483h3.056L128.09 59l4.59-5.77m2.11 1.3h.4c.172 0 .29.013.356.04a.32.32 0 0 1 .146.112c.036.05.054.11.054.174 0 .1-.036.18-.11.24-.075.062-.213.093-.417.093h-.43v-.66zm0 1.89v-.93h.207c.123 0 .218.026.283.076.093.068.215.236.37.507l.19.346h.43l-.266-.43a2.511 2.511 0 0 0-.32-.433.597.597 0 0 0-.187-.115.674.674 0 0 0 .453-.2.58.58 0 0 0 .07-.736.546.546 0 0 0-.275-.21c-.115-.04-.3-.062-.558-.062h-.75v2.185h.353zm1.37-2.598c.27.146.48.356.633.626.15.272.227.554.227.848 0 .293-.074.572-.225.842a1.584 1.584 0 0 1-.626.626c-.27.15-.55.224-.84.224-.294 0-.576-.075-.844-.224-.27-.15-.48-.36-.628-.626a1.73 1.73 0 0 1-.224-.842c0-.294.077-.576.228-.848.154-.27.364-.48.634-.626.27-.146.547-.22.833-.22.28 0 .56.074.83.22zm-1.83-.293c-.324.173-.58.423-.76.75-.18.325-.272.665-.272 1.016 0 .35.09.686.268 1.008.18.324.43.575.752.752.323.178.658.268 1.01.268.35 0 .69-.09 1.01-.268.32-.177.572-.428.75-.752a2.035 2.035 0 0 0-.004-2.025 1.838 1.838 0 0 0-.758-.75 2.059 2.059 0 0 0-.997-.262c-.342 0-.675.085-1 .26z"/><path fill="#919191" d="M48.106 131.244h5.2v-26.628h-5.2m27.15 26.628L64.71 114.9v16.344h-5.2v-26.628h4.64l10.545 16.306v-16.306h5.2v26.628M99.15 110.9c-.86-1.085-2.133-1.647-3.89-1.647h-3.965v17.354h3.964c1.757 0 3.03-.562 3.89-1.646.97-1.158 1.083-2.84 1.083-7.03s-.112-5.872-1.084-7.03m4.6 16.455c-1.91 2.655-4.414 3.89-8.042 3.89h-9.612v-26.63h9.612c3.628 0 6.133 1.235 8.04 3.89 1.647 2.282 1.684 5.012 1.684 9.425 0 4.413-.037 7.143-1.683 9.425m6.991 3.888v-26.628h17.54v4.637h-12.34v6.246h10.508v4.637h-10.51v6.47h12.343v4.637m18.396.001l-5.16-9.275-5.125 9.274h-5.946l8.265-13.65-7.743-12.978h5.91l4.637 8.602 4.675-8.602h5.87l-7.74 12.977 8.3 13.65M47.456 95.968V80.302h10.32v2.728h-7.26v3.675h6.18v2.728h-6.18v3.806h7.26v2.728m12.649-1.649c-1.298 1.364-2.75 1.782-4.423 1.782-1.782 0-3.102-.594-4.18-1.65-1.563-1.562-1.585-3.322-1.585-6.315 0-2.992.022-4.753 1.584-6.315 1.08-1.056 2.4-1.65 4.182-1.65 3.652 0 5.48 2.377 5.897 5.017h-3.08C68.466 83.69 67.563 82.9 66 82.9c-.836 0-1.496.33-1.958.835-.572.66-.748 1.408-.748 4.4 0 2.993.176 3.763.748 4.423.462.506 1.122.814 1.958.814.946 0 1.694-.33 2.178-.88.507-.572.704-1.277.704-2.09v-.572H66v-2.575h5.92v2.29c0 2.265-.353 3.585-1.497 4.773M80.72 78.784h-1.914l1.408-3.74h3.014l-2.508 3.74zM75.043 95.97V80.302h10.32v2.728h-7.26v3.675h6.18v2.728h-6.18v3.807h7.26v2.73h-10.32zm17.623.13c-2.376 0-4.18-.506-5.72-2.068l1.98-1.98c.99.99 2.332 1.32 3.762 1.32 1.827 0 2.794-.704 2.794-1.96 0-.526-.153-.967-.483-1.297-.31-.286-.618-.418-1.41-.528l-1.87-.286c-1.386-.197-2.332-.615-3.036-1.297-.748-.726-1.122-1.76-1.122-3.08 0-2.795 2.068-4.753 5.456-4.753 2.157 0 3.72.528 5.06 1.826l-1.935 1.915c-.968-.946-2.18-1.078-3.213-1.078-1.628 0-2.398.902-2.398 1.98 0 .42.11.815.44 1.123.308.286.77.506 1.43.594l1.87.285c1.43.198 2.31.572 2.993 1.232.836.77 1.21 1.892 1.21 3.3 0 3.037-2.508 4.753-5.81 4.753m7.746-.133v-2.464l6.688-10.474h-6.403v-2.728h10.012v2.42l-6.71 10.517h6.71v2.728m7.017.133c-2.376 0-4.18-.506-5.72-2.068l1.98-1.98c.99.99 2.332 1.32 3.762 1.32 1.827 0 2.794-.704 2.794-1.96 0-.526-.153-.967-.483-1.297-.31-.286-.617-.418-1.41-.528l-1.87-.286c-1.385-.197-2.33-.615-3.035-1.297-.748-.726-1.122-1.76-1.122-3.08 0-2.795 2.068-4.753 5.456-4.753 2.157 0 3.72.528 5.06 1.826l-1.935 1.915c-.967-.946-2.178-1.078-3.212-1.078-1.628 0-2.398.902-2.398 1.98 0 .42.11.815.44 1.123.308.286.77.506 1.43.594l1.87.285c1.43.198 2.31.572 2.993 1.232.836.77 1.21 1.892 1.21 3.3 0 3.037-2.508 4.753-5.81 4.753m14.366-17.317h-1.914l1.408-3.74h3.014l-2.508 3.74zm-5.677 17.185V80.302h10.32v2.728h-7.26v3.675h6.18v2.728h-6.18v3.807h7.26v2.73h-10.32zm22.97-1.651c-1.298 1.364-2.75 1.782-4.423 1.782-1.782 0-3.102-.594-4.18-1.65-1.563-1.562-1.585-3.322-1.585-6.315 0-2.992.022-4.753 1.584-6.315 1.078-1.056 2.398-1.65 4.18-1.65 3.652 0 5.48 2.377 5.897 5.017h-3.08c-.352-1.496-1.254-2.288-2.817-2.288-.836 0-1.496.33-1.958.835-.572.66-.748 1.408-.748 4.4 0 2.993.176 3.763.748 4.423.462.506 1.122.814 1.958.814.946 0 1.694-.33 2.178-.88.507-.572.704-1.277.704-2.09v-.572h-2.882v-2.575h5.92v2.29c0 2.265-.353 3.585-1.497 4.773"/></g></svg>