<svg width="197" height="197"><g fill="none" fill-rule="evenodd"><circle fill="#FFF" cx="99" cy="99" r="79"/><path d="M175.212 99.667c-.482 27.187-15.157 50.907-36.95 64.046L149.11 182.5c28.274-16.893 47.323-47.618 47.808-82.833h-21.706z" fill="#FCBA1D"/><path d="M98.902 174.636c-13.417 0-26.02-3.472-36.975-9.55l-10.85 18.793c14.148 7.922 30.457 12.444 47.825 12.444 17.368 0 33.677-4.522 47.825-12.445l-10.85-18.794c-10.956 6.078-23.558 9.55-36.975 9.55" fill="#E45C0A"/><path d="M22.592 99.667H.886c.486 35.215 19.534 65.94 47.808 82.834l10.847-18.787c-21.79-13.14-36.465-36.86-36.948-64.046" fill="#D90015"/><path d="M59.541 32.87L48.695 14.08C20.42 30.975 1.372 61.7.886 96.916h21.707c.482-27.187 15.156-50.907 36.948-64.046" fill="#B792DB"/><path d="M175.212 96.915h21.706c-.485-35.216-19.534-65.94-47.808-82.835l-10.847 18.788c21.792 13.14 36.467 36.86 36.95 64.047" fill="#128B34"/><path d="M98.902 21.946c13.417 0 26.02 3.472 36.975 9.55l10.85-18.794C132.58 4.78 116.27.258 98.902.258c-17.368 0-33.677 4.522-47.825 12.444l10.85 18.794c10.956-6.078 23.558-9.55 36.975-9.55" fill="#0F5AC3"/><path fill="red" d="M100.552 53.205l-4.635 7.338v-7.338h-2.573l-5.536 8.626h3.22l2.316-3.86v7.076h3.09l4.118-7.077v7.076h2.704v-11.84"/><path fill="red" d="M87.037 53.205H84.46v11.84h6.566v-2.313h-3.99m-6.058-1.81h-2.173L79.956 59l1.023-1.798v3.72zm-.257-7.69l-.765 1.28-6.518 10.508h3.195l1.406-2.305h2.94v2.305h2.557V53.232H80.72zm-4.275-.002l-4.358 7.048V53.23H69.14l-4.23 7.048V53.23h-2.693v11.79h2.692l4.742-7.434v7.434h2.436l7.305-11.79m30.548 5.584l.904-1.612v3.72H108.8L109.82 59l.12-.186zm-.12 3.9h1.024v2.308h2.556v-11.79h-2.686l-.894 1.28-6.515 10.51h3.192l1.407-2.307h1.916zm9.133-4.357h-1.66v-3.202h1.66c1.022.128 1.53.51 1.53 1.538 0 1.024-.508 1.534-1.53 1.664m3.702.128c.128-.51.256-.898.256-1.283 0-.64 0-1.15-.127-1.793-.385-1.153-1.53-1.793-2.808-2.05-.386-.128-.64-.128-1.022-.128h-4.34v11.79h2.68v-4.485c.893 0 1.15.897 1.532 1.406l.25.536 1.153 2.54h2.683l-2.428-4.998c1.025-.253 1.79-.77 2.173-1.537m7.218-5.253l-3.573 4.616V53.23h-2.68v11.79h2.68v-4.483l3.32 4.483h3.056L128.09 59l4.59-5.77m2.11 1.3h.4c.172 0 .29.013.356.04a.32.32 0 0 1 .146.112c.036.05.054.11.054.174 0 .1-.036.18-.11.24-.075.062-.213.093-.417.093h-.43v-.66zm0 1.89v-.93h.207c.123 0 .218.026.283.076.093.068.215.236.37.507l.19.346h.43l-.266-.43a2.511 2.511 0 0 0-.32-.433.597.597 0 0 0-.187-.115.674.674 0 0 0 .453-.2.58.58 0 0 0 .07-.736.546.546 0 0 0-.275-.21c-.115-.04-.3-.062-.558-.062h-.75v2.185h.353zm1.37-2.598c.27.146.48.356.633.626.15.272.227.554.227.848 0 .293-.074.572-.225.842a1.584 1.584 0 0 1-.626.626c-.27.15-.55.224-.84.224-.294 0-.576-.075-.844-.224-.27-.15-.48-.36-.628-.626a1.73 1.73 0 0 1-.224-.842c0-.294.077-.576.228-.848.154-.27.364-.48.634-.626.27-.146.547-.22.833-.22.28 0 .56.074.83.22zm-1.83-.293c-.324.173-.58.423-.76.75-.18.325-.272.665-.272 1.016 0 .35.09.686.268 1.008.18.324.43.575.752.752.323.178.658.268 1.01.268.35 0 .69-.09 1.01-.268.32-.177.572-.428.75-.752a2.035 2.035 0 0 0-.004-2.025 1.838 1.838 0 0 0-.758-.75 2.059 2.059 0 0 0-.997-.262c-.342 0-.675.085-1 .26z"/><path fill="#919191" d="M39.956 125.034h3.618V106.5h-3.618m18.638 18.535l-7.34-11.376v11.375h-3.62V106.5h3.23l7.34 11.35V106.5h3.618v18.535m13.146-14.161c-.6-.755-1.484-1.146-2.707-1.146H69.5v12.08l2.76-.002c1.224 0 2.11-.39 2.708-1.144.677-.808.755-1.98.755-4.895 0-2.914-.078-4.086-.755-4.893m3.202 11.454c-1.328 1.848-3.072 2.707-5.597 2.707h-6.69V106.5h6.69c2.525 0 4.27.86 5.597 2.708 1.145 1.588 1.17 3.488 1.17 6.56 0 3.072-.025 4.972-1.17 6.56m4.608 2.707V106.5h12.208v3.228h-8.59v4.348h7.315v3.228h-7.314v4.503h8.59v3.228m14.057 0l-4.764-8.434-2.395 2.864v5.57h-3.618v-18.533h3.618v8.07l6.534-8.07h4.4l-6.145 7.368 6.586 11.167m7.16.153c-2.812 0-4.946-.598-6.768-2.446l2.343-2.343c1.17 1.172 2.76 1.563 4.45 1.563 2.162 0 3.307-.833 3.307-2.317 0-.624-.182-1.145-.573-1.536-.365-.338-.73-.494-1.667-.625l-2.212-.338c-1.64-.234-2.758-.728-3.59-1.536-.887-.857-1.33-2.08-1.33-3.643 0-3.306 2.448-5.623 6.457-5.623 2.55 0 4.4.625 5.987 2.16l-2.29 2.266c-1.146-1.12-2.578-1.276-3.802-1.276-1.926 0-2.837 1.067-2.837 2.343 0 .495.13.963.52 1.328.365.338.912.598 1.693.702l2.212.34c1.692.233 2.734.675 3.54 1.457.99.91 1.433 2.238 1.433 3.904 0 3.593-2.968 5.623-6.873 5.623m16.244-13.226l-2.343 6.742h4.61l-2.266-6.743zm4.32 13.068l-1.092-3.28h-6.586l-1.12 3.28h-3.774l6.742-18.534h2.838l6.768 18.535h-3.775zm10.908.155c-2.812 0-4.946-.598-6.768-2.446l2.343-2.343c1.17 1.172 2.76 1.563 4.45 1.563 2.162 0 3.307-.833 3.307-2.317 0-.624-.182-1.145-.573-1.536-.363-.338-.727-.494-1.665-.625l-2.212-.338c-1.64-.234-2.76-.728-3.592-1.536-.885-.857-1.327-2.08-1.327-3.643 0-3.306 2.447-5.623 6.456-5.623 2.55 0 4.398.625 5.986 2.16l-2.29 2.266c-1.146-1.12-2.578-1.276-3.802-1.276-1.926 0-2.837 1.067-2.837 2.343 0 .495.13.963.52 1.328.365.338.912.598 1.693.702l2.212.34c1.692.233 2.734.675 3.54 1.457.99.91 1.433 2.238 1.433 3.904 0 3.593-2.968 5.623-6.873 5.623M45.598 99.808c-2.53 0-4.45-.54-6.09-2.202l2.11-2.108c1.052 1.054 2.48 1.406 4.003 1.406 1.946 0 2.976-.75 2.976-2.085 0-.563-.164-1.032-.515-1.383-.327-.304-.655-.445-1.498-.562l-1.99-.305c-1.476-.21-2.484-.656-3.233-1.382-.798-.773-1.196-1.873-1.196-3.278 0-2.975 2.202-5.06 5.81-5.06 2.294 0 3.957.562 5.386 1.944l-2.06 2.038c-1.032-1.007-2.32-1.148-3.42-1.148-1.734 0-2.554.96-2.554 2.108 0 .445.117.867.47 1.195.326.304.82.54 1.52.632l1.992.304c1.522.21 2.46.61 3.186 1.31.89.82 1.288 2.016 1.288 3.515 0 3.23-2.67 5.058-6.184 5.058m15.313-.138h-2.436L52.972 82.99h3.373l3.35 10.868 3.348-10.868h3.397m2.01 16.677V82.99h10.985v2.905h-7.73v3.91h6.582v2.905h-6.58v4.053h7.728v2.904m3.182.001h3.256V82.99h-3.256m16.838 16.677l-4.286-7.59-2.156 2.578v5.012h-3.256V82.99h3.256v7.26l5.88-7.26h3.957l-5.526 6.63 5.925 10.047m7.913-11.757l-2.108 6.066h4.146l-2.038-6.066zm3.888 11.758l-.984-2.95h-5.925l-1.007 2.95h-3.396l6.067-16.677h2.552l6.09 16.678h-3.396zm10.185-13.773v13.772h-3.256V85.895h-4.357V82.99h11.968v2.905m9.86.749c-.47-.54-1.195-.89-2.085-.89-.89 0-1.617.35-2.108.89-.61.703-.797 1.5-.797 4.685 0 3.184.188 3.957.797 4.66.49.54 1.217.914 2.108.914.89 0 1.616-.375 2.084-.913.608-.702.82-1.475.82-4.66 0-3.187-.212-3.983-.82-4.686m2.365 11.407c-1.124 1.125-2.53 1.758-4.45 1.758-1.92 0-3.35-.633-4.474-1.757-1.662-1.662-1.686-3.536-1.686-6.72 0-3.187.024-5.06 1.687-6.724 1.125-1.123 2.554-1.755 4.475-1.755 1.92 0 3.326.633 4.45 1.757 1.663 1.662 1.71 3.537 1.71 6.723 0 3.184-.047 5.058-1.71 6.72m9.622 1.755c-2.53 0-4.45-.54-6.09-2.202l2.108-2.108c1.054 1.054 2.483 1.406 4.005 1.406 1.945 0 2.975-.75 2.975-2.085 0-.563-.164-1.032-.515-1.383-.327-.304-.655-.445-1.498-.562l-1.992-.305c-1.475-.21-2.483-.656-3.232-1.382-.797-.773-1.195-1.873-1.195-3.278 0-2.975 2.203-5.06 5.81-5.06 2.295 0 3.958.562 5.387 1.944l-2.06 2.038c-1.032-1.007-2.32-1.148-3.42-1.148-1.734 0-2.555.96-2.555 2.108 0 .445.118.867.47 1.195.327.304.82.54 1.522.632l1.99.304c1.522.21 2.46.61 3.186 1.31.89.82 1.288 2.016 1.288 3.515 0 3.23-2.67 5.058-6.183 5.058"/></g></svg>