<svg width="34" height="44"><g fill="none" fill-rule="evenodd"><path d="M17 .112c-9.39 0-17 7.61-17 17 0 10.143 12.873 23.23 16.215 26.457.44.424 1.13.424 1.57 0C21.127 40.34 34 27.254 34 17.11c0-9.39-7.61-17-17-17z" fill="#E12F31" fill-rule="nonzero"/><circle fill="#FFF" fill-rule="nonzero" cx="17" cy="17" r="14"/><path d="M12.642 21.193v2.353c0 2.363 1.92 4.28 4.286 4.28a4.283 4.283 0 0 0 4.286-4.28v-2.353h2.357a4.283 4.283 0 0 0 4.287-4.28 4.283 4.283 0 0 0-4.286-4.278H12.643v8.558" fill="#FED330"/><path d="M21.214 10.283a4.282 4.282 0 0 0-4.286-4.28 4.283 4.283 0 0 0-4.286 4.28v2.352h-2.356A4.283 4.283 0 0 0 6 16.915a4.283 4.283 0 0 0 4.286 4.278h10.928v-10.91z" fill="#FF6900"/></g></svg>